<?xml version="1.0" encoding="UTF-8" standalone="no"?>
<!DOCTYPE svg PUBLIC "-//W3C//DTD SVG 1.1//EN" "http://www.w3.org/Graphics/SVG/1.1/DTD/svg11.dtd">
<svg width="100%" height="100%" viewBox="0 0 868 1250" version="1.1" xmlns="http://www.w3.org/2000/svg" xmlns:xlink="http://www.w3.org/1999/xlink" xml:space="preserve" xmlns:serif="http://www.serif.com/" style="fill-rule:evenodd;clip-rule:evenodd;stroke-linejoin:round;stroke-miterlimit:2;">
    <g transform="matrix(1,0,0,1,-3.69167,0)">
        <g transform="matrix(4.16667,0,0,4.16667,0,0)">
            <path d="M104.999,0C47.5,0 0.886,46.612 0.886,104.113C0.886,113.995 2.293,123.541 4.865,132.598C6.448,138.174 8.18,143.713 10.915,148.719C32.264,187.806 104.998,300 104.998,300C104.998,300 177.737,187.804 199.085,148.716C201.82,143.711 203.55,138.173 205.134,132.598C207.705,123.541 209.113,113.995 209.113,104.113C209.113,46.612 162.5,0 104.999,0ZM104.999,149.956C90.479,149.956 77.524,143.164 69.118,132.598C62.89,124.769 59.154,114.872 59.154,104.113C59.154,78.835 79.72,58.269 104.999,58.269C130.279,58.269 150.842,78.835 150.842,104.113C150.842,114.872 147.108,124.769 140.88,132.598C132.473,143.164 119.519,149.956 104.999,149.956Z" style="fill:rgb(254,211,114);fill-rule:nonzero;"/>
        </g>
    </g>
</svg>
